<?xml version="1.0" encoding="UTF-8" standalone="no"?>
<!-- Created with Inkscape (http://www.inkscape.org/) -->

<svg
   width="1017.1558"
   height="1024"
   viewBox="0 0 269.12247 270.93334"
   version="1.1"
   id="svg1"
   xmlns="http://www.w3.org/2000/svg"
   xmlns:svg="http://www.w3.org/2000/svg">
  <defs
     id="defs1" />
  <g
     id="layer1"
     transform="translate(-0.00316152)">
    <path
       id="circle21"
       style="display:inline;vector-effect:none;fill:#151a2a;fill-opacity:1;stroke-width:1.64023;stop-color:#000000"
       d="M 133.59866,17.004949 A 104.25266,104.25266 0 0 0 29.343732,121.25655 a 104.25266,104.25266 0 0 0 14.427631,52.4762 c 0.222442,-0.21583 0.33201,-0.34439 0.597866,-0.59463 3.381872,-3.19396 10.394628,-9.38302 13.882938,-12.40164 1.74415,-1.5094 2.606872,-2.22655 3.76966,-2.24518 1.162794,-0.0178 2.625256,0.6609 5.569786,1.94624 5.889018,2.57102 17.704243,7.56227 29.768613,14.98227 12.064374,7.42 24.379294,17.27071 30.535834,22.21273 6.15655,4.94204 6.15433,4.97754 6.15433,5.04832 h 0.51143 c 0,-0.0704 10e-4,-0.108 6.15765,-5.04832 6.15654,-4.94202 18.46814,-14.79272 30.53251,-22.21272 12.06438,-7.42001 23.87959,-12.41147 29.76861,-14.98228 2.94452,-1.2853 4.40702,-1.96489 5.56978,-1.94624 1.1628,0.0178 2.02552,0.73589 3.76968,2.24519 3.40426,2.94577 10.08688,8.845 13.55412,12.09942 A 104.25266,104.25266 0 0 0 237.85027,121.25655 104.25266,104.25266 0 0 0 133.59866,17.004949 Z" />
    <path
       id="circle27"
       style="font-variation-settings:normal;display:inline;vector-effect:none;fill:#f0f0f0;fill-opacity:1;stroke-width:1.90778;stroke-linecap:butt;stroke-linejoin:miter;stroke-miterlimit:4;stroke-dasharray:none;stroke-dashoffset:0;stroke-opacity:1;-inkscape-stroke:none;stop-color:#000000"
       d="M 133.59866,1.0603329e-8 A 121.25761,121.25761 0 0 0 12.338788,121.25655 a 121.25761,121.25761 0 0 0 22.727506,70.2052 c 1.755594,-3.02089 3.756628,-5.57224 5.294119,-7.43304 A 112.54258,112.54258 0 0 1 21.05382,121.25655 112.54258,112.54258 0 0 1 133.59866,8.7150392 112.54258,112.54258 0 0 1 246.14015,121.25655 112.54258,112.54258 0 0 1 227.54101,183.16519 c 1.42784,1.70405 3.58116,4.31973 5.4934,7.42968 A 121.25761,121.25761 0 0 0 254.85523,121.25655 121.25761,121.25761 0 0 0 133.59866,1.0603329e-8 Z" />
    <path
       id="circle2"
       style="display:inline;fill:#f0f0f0;fill-opacity:1;stroke:none;stroke-width:0.103363"
       d="m 62.366357,162.52031 c -1.222228,0.26574 -16.426216,14.28749 -16.426216,14.28749 55.692549,10.58891 82.114809,38.52555 87.213289,44.48307 l 1.23473,1.78602 0.88192,-1.35594 c 3.50012,-4.25592 29.6174,-33.89306 87.57707,-44.91302 0,0 -15.215,-14.0218 -16.43724,-14.28749 -1.2222,-0.2656 -55.75048,23.96623 -71.84539,48.19827 v 0.0768 l -0.17642,-0.1104 h -0.1873 c -16.122,-24.22086 -70.612757,-48.43029 -71.834443,-48.1648 z m -14.243402,21.3651 c -1.700492,0.37199 -13.967795,16.42623 -13.967795,16.42623 46.125918,-1.16907 67.70026,10.19747 67.70026,10.19747 -28.058159,-7.43967 -66.24892,-2.47062 -68.240452,-2.1718 -1.991484,0.30044 -2.254528,0.97408 -2.667882,1.38908 -0.413334,0.41336 -8.301302,13.97882 -8.301302,13.97882 67.947864,-22.88181 105.832916,2.98954 110.926566,6.82404 l 0.81579,0.85994 0.82677,-0.85994 c 5.11563,-3.84912 43.00337,-29.69755 110.92656,-6.82404 0,0 -7.88798,-13.56552 -8.30132,-13.97882 -0.41344,-0.41508 -0.67626,-1.0886 -2.66788,-1.38906 -1.99148,-0.29874 -40.18228,-5.26789 -68.24043,2.17178 0,0 21.57433,-11.36653 67.70025,-10.19747 0,0 -12.27834,-16.05424 -13.97882,-16.42623 -1.70048,-0.37354 -42.85135,5.39279 -86.08881,42.8184 v 0.1536 l -0.17642,-0.23146 -0.17642,0.0662 C 90.978644,189.27639 49.823277,183.51195 48.122955,183.88541 Z m 28.034804,37.89054 c -29.734152,-0.0362 -51.756407,9.9437 -53.170221,11.26684 -2.154388,2.016 -5.501128,17.10972 -5.501128,17.10972 53.990701,-23.16926 103.45208,-11.25582 103.45208,-11.25582 0,0 1.74479,-3.6058 6.4382,-6.12952 -17.95305,-8.19988 -35.643892,-10.9717 -51.218931,-10.99122 z m 116.813541,0 c -15.57503,0.02 -33.26589,2.79134 -51.21892,10.99122 4.6934,2.52372 6.43819,6.12952 6.43819,6.12952 0,0 49.45035,-11.91344 103.44104,11.25582 0,0 -3.3357,-15.0937 -5.49008,-17.10972 -1.41376,-1.3231 -23.43608,-11.30412 -53.17023,-11.26684 z m -58.40677,15.79782 a 9.1735002,9.1735002 0 0 0 -9.17223,9.17222 9.1735002,9.1735002 0 0 0 9.17223,9.18326 9.1735002,9.1735002 0 0 0 9.17222,-9.18326 9.1735002,9.1735002 0 0 0 -9.17222,-9.17222 z m -32.10277,4.05694 c -9.2916,-0.0342 -22.899343,0.8911 -41.903389,4.3105 -43.437823,7.81582 -58.6934019,15.18048 -58.6934019,15.18048 0,0 -2.23312678,1.57078 -1.80798609,4.45384 0.42514089,2.88268 3.43770839,3.67884 5.97517329,2.92142 2.5374404,-0.75734 36.5378827,-11.00862 60.8762147,-14.72846 22.062643,-3.372 36.349649,-5.06136 43.601129,-5.1153 a 24.180839,24.180839 0 0 0 24.05503,22.28014 24.180839,24.180839 0 0 0 24.09913,-22.29114 c 7.27037,0.0618 21.55433,1.76342 43.55703,5.1263 24.33832,3.71984 58.32776,13.97112 60.86518,14.72846 2.53742,0.75734 5.56124,-0.0384 5.9862,-2.92142 0.42496,-2.88302 -1.8191,-4.45384 -1.8191,-4.45384 0,0 -15.2556,-7.36466 -58.6934,-15.18048 -43.4378,-7.81568 -58.66031,-2.62378 -58.66031,-2.62378 a 15.726001,15.726001 0 0 1 0.38578,3.42856 15.726001,15.726001 0 0 1 -15.72066,15.7317 15.726001,15.726001 0 0 1 -15.73169,-15.7317 15.726001,15.726001 0 0 1 0.43001,-3.42856 h -0.0441 c 0,0 -4.81061,-1.64182 -16.75695,-1.68662 z" />
    <path
       style="display:inline;fill:#000000;fill-opacity:0;stroke:#f0f0f0;stroke-width:1.19062;stroke-linecap:round;stroke-dasharray:none;stroke-opacity:1"
       d="m 17.875911,26.42526 c 0.286632,-0.132292 0.573264,-0.264583 1.394588,-0.915029 0.821325,-0.650446 2.177287,-1.818999 3.3128,-3.210833 1.135512,-1.391835 2.050511,-3.006863 2.965529,-4.621924"
       id="path15"
       transform="matrix(6.4270662,0,0,6.4270662,-23.205533,-18.738651)" />
    <path
       style="display:inline;fill:#000000;fill-opacity:0;stroke:#f0f0f0;stroke-width:1.19062;stroke-linecap:round;stroke-dasharray:none;stroke-opacity:1"
       d="m 21.365104,13.708724 c -0.694531,-0.01102 -1.389063,-0.02205 -1.703255,0.476814 -0.314192,0.49886 -0.248047,1.507564 0.256325,2.127683 0.504371,0.62012 1.44693,0.851626 2.538349,0.61184 1.091418,-0.239786 2.331628,-0.950839 3.478166,-1.94304 1.146539,-0.9922 2.199339,-2.265482 2.844263,-3.475411 0.644924,-1.209929 0.881942,-2.3564339 0.879182,-2.9489906 -0.0028,-0.5925568 -0.245286,-0.6311406 -0.636655,-0.457504 -0.391369,0.1736366 -0.931548,0.5594791 -1.562697,1.4331688 -0.631149,0.8736898 -1.353227,2.2351648 -2.116668,3.8116578 -0.763441,1.576494 -1.5682,3.367908 -2.240688,4.704614 -0.672488,1.336706 -1.212668,2.218633 -2.113917,3.332101 -0.90125,1.113468 -2.163507,2.458407 -3.500219,3.238379 -1.336711,0.779971 -2.747794,0.994941 -3.847476,0.71657 -1.099682,-0.278372 -1.887904,-1.050058 -2.229657,-1.909964 -0.341752,-0.859905 -0.237024,-1.807976 0.118516,-2.295801 0.35554,-0.487826 0.961865,-0.515385 1.568208,-0.264576 0.606343,0.250809 1.212667,0.779964 2.235186,1.493797 1.022519,0.713833 2.461162,1.612296 4.136876,2.320613 1.675713,0.708317 3.588392,1.226449 5.523177,1.474495 1.934785,0.248046 3.891561,0.225996 5.647197,-0.281133 1.755636,-0.507128 3.310032,-1.499296 4.114807,-2.348174 0.804774,-0.848879 0.859895,-1.55442 0.700038,-2.166275 -0.159856,-0.611854 -0.534675,-1.129986 -1.058336,-1.355983 -0.523662,-0.225998 -1.196129,-0.159853 -1.656397,0.146077 -0.460268,0.30593 -0.708309,0.851622 -0.653185,1.309134 0.05512,0.457512 0.413407,0.826819 0.760677,0.95911 0.34727,0.132291 0.683505,0.02756 0.887455,-0.117877 0.203949,-0.145439 0.275606,-0.331579 0.347264,-0.517723"
       id="path14"
       transform="matrix(6.4270662,0,0,6.4270662,-23.205533,-18.738651)" />
  </g>
</svg>
