<?xml version="1.0" encoding="UTF-8" standalone="no"?>
<!-- Created with Inkscape (http://www.inkscape.org/) -->

<svg
   width="47.679176"
   height="48"
   viewBox="0 0 12.615115 12.7"
   version="1.1"
   id="svg1"
   xmlns="http://www.w3.org/2000/svg"
   xmlns:svg="http://www.w3.org/2000/svg">
  <defs
     id="defs1" />
  <g
     id="layer1"
     transform="translate(-0.00316153)">
    <path
       id="circle21"
       style="display:inline;vector-effect:none;fill:#151a2a;fill-opacity:1;stroke-width:0.0768861;stop-color:#000000"
       d="M 6.2654508,0.797107 A 4.8868436,4.8868436 0 0 0 1.3785008,5.683901 4.8868436,4.8868436 0 0 0 2.054796,8.1437225 C 2.065223,8.1336065 2.070359,8.1275755 2.082821,8.1158455 2.2413462,7.966129 2.5700692,7.6760164 2.7335837,7.5345191 2.8153407,7.4637661 2.8557808,7.4301495 2.9102865,7.429276 c 0.054506,-8.737e-4 0.1230589,0.030978 0.2610837,0.09123 0.2760477,0.1205164 0.8298866,0.3544814 1.3954039,0.7022941 0.5655174,0.3478126 1.1427791,0.8095642 1.4313671,1.041222 0.2885881,0.2316579 0.2884842,0.2333212 0.2884842,0.23664 h 0.023975 c 0,-0.00331 5.17e-5,-0.00506 0.2886397,-0.23664 C 6.8878282,9.0323645 7.4649345,8.5706129 8.0304519,8.2228003 8.5959691,7.8749876 9.1498078,7.6410128 9.4258558,7.5205062 c 0.1380247,-0.060248 0.2065784,-0.092104 0.2610836,-0.09123 0.054506,8.736e-4 0.094946,0.034493 0.1767028,0.1052431 0.1595758,0.1380831 0.4728238,0.4146092 0.6353498,0.5671601 A 4.8868436,4.8868436 0 0 0 11.152245,5.683901 4.8868436,4.8868436 0 0 0 6.2654508,0.797107 Z" />
    <path
       id="circle27"
       style="font-variation-settings:normal;display:inline;vector-effect:none;fill:#f0f0f0;fill-opacity:1;stroke-width:0.0894272;stroke-linecap:butt;stroke-linejoin:miter;stroke-miterlimit:4;stroke-dasharray:none;stroke-dashoffset:0;stroke-opacity:1;-inkscape-stroke:none;stop-color:#000000"
       d="M 6.2654508,0 A 5.6839506,5.6839506 0 0 0 0.58139404,5.683901 5.6839506,5.6839506 0 0 0 1.6467459,8.9747696 C 1.7290393,8.8331653 1.8228378,8.7135711 1.8949077,8.6263461 A 5.2754333,5.2754333 0 0 1 0.9899111,5.683901 5.2754333,5.2754333 0 0 1 6.2654508,0.40851745 5.2754333,5.2754333 0 0 1 11.540834,5.683901 5.2754333,5.2754333 0 0 1 10.668999,8.5858686 c 0.06693,0.079877 0.167867,0.2024868 0.257503,0.3482659 A 5.6839506,5.6839506 0 0 0 11.949353,5.683901 5.6839506,5.6839506 0 0 0 6.2654508,0 Z" />
    <path
       id="circle2"
       style="display:inline;fill:#f0f0f0;fill-opacity:1;stroke:none;stroke-width:0.00484515"
       d="M 2.9264364,7.6181396 C 2.8691444,7.6305939 2.1564575,8.2878662 2.1564575,8.2878662 4.7670461,8.7842209 6.0055892,10.093751 6.2445801,10.37301 l 0.057878,0.08372 0.041341,-0.06356 c 0.1640688,-0.199496 1.388316,-1.5887376 4.1051759,-2.1052978 0,0 -0.7132039,-0.6572723 -0.7704957,-0.6697266 -0.057291,-0.01245 -2.6133038,1.1234172 -3.3677531,2.2592937 v 0.00362 l -0.00827,-0.00517 h -0.00878 C 5.5379572,8.7405122 2.9837029,7.6056952 2.9264364,7.6181396 Z M 2.2587769,8.6196289 C 2.1790663,8.6370654 1.6040365,9.3896077 1.6040365,9.3896077 3.7661889,9.3348082 4.7774862,9.8676147 4.7774862,9.8676147 3.46226,9.5188799 1.672068,9.7518052 1.578715,9.7658122 1.4853641,9.7798962 1.473034,9.8114705 1.453658,9.8309245 1.4342832,9.8502985 1.0645345,10.486182 1.0645345,10.486182 4.2495906,9.4135969 6.025453,10.626317 6.2642171,10.806059 l 0.038241,0.04031 0.038757,-0.04031 c 0.239795,-0.180427 2.015783,-1.3920728 5.1996829,-0.319877 0,0 -0.369749,-0.6358835 -0.389124,-0.6552575 -0.01938,-0.019454 -0.0317,-0.051028 -0.125057,-0.065112 -0.09335,-0.014007 -1.8835447,-0.2469323 -3.1987709,0.1018025 0,0 1.0112974,-0.5328065 3.1734499,-0.478007 0,0 -0.575547,-0.7525423 -0.655257,-0.7699788 -0.07971,-0.017508 -2.0086573,0.2527861 -4.035413,2.0071128 v 0.0072 l -0.00827,-0.01085 -0.00827,0.0031 C 4.2676373,8.8723311 2.3384795,8.6021225 2.2587769,8.6196289 Z m 1.3141316,1.7761191 c -1.3937885,-0.0017 -2.4260818,0.466111 -2.4923543,0.528133 -0.10098701,0.0945 -0.2578654,0.802018 -0.2578654,0.802018 2.5308143,-1.086059 4.8493164,-0.527616 4.8493164,-0.527616 0,0 0.081787,-0.169022 0.3017904,-0.287321 -0.8415487,-0.38437 -1.6708074,-0.514299 -2.4008871,-0.515214 z m 5.4756348,0 c -0.7300797,9.15e-4 -1.5593383,0.130844 -2.4008871,0.515214 0.2200033,0.118299 0.3017904,0.287321 0.3017904,0.287321 0,0 2.3179853,-0.558443 4.8487994,0.527616 0,0 -0.156361,-0.707517 -0.257348,-0.802018 -0.06627,-0.06202 -1.098566,-0.52988 -2.4923547,-0.528133 z M 6.3107259,11.136271 A 0.43000782,0.43000782 0 0 0 5.880778,11.566219 0.43000782,0.43000782 0 0 0 6.3107259,11.996684 0.43000782,0.43000782 0 0 0 6.7406738,11.566219 0.43000782,0.43000782 0 0 0 6.3107259,11.136271 Z M 4.8059082,11.32644 C 4.3703648,11.32484 3.7325017,11.36821 2.841687,11.528495 0.80553903,11.894861 0.09043376,12.24008 0.09043376,12.24008 c 0,0 -0.10467782,0.07363 -0.08474935,0.208773 0.01992848,0.135126 0.16114258,0.172446 0.28008626,0.136942 0.1189425,-0.0355 1.71271333,-0.516029 2.85357263,-0.690397 1.0341865,-0.158062 1.7038896,-0.237251 2.0438029,-0.239779 A 1.1334769,1.1334769 0 0 0 6.3107259,12.7 1.1334769,1.1334769 0 0 0 7.4403727,11.655103 c 0.3407986,0.0029 1.010359,0.08266 2.0417359,0.240295 1.1408594,0.174368 2.7341144,0.654897 2.8530554,0.690397 0.118942,0.0355 0.260683,-0.0018 0.280603,-0.136942 0.01992,-0.135141 -0.08527,-0.208773 -0.08527,-0.208773 0,0 -0.715106,-0.345219 -2.751253,-0.711585 -2.0361479,-0.36636 -2.7497029,-0.12299 -2.7497029,-0.12299 a 0.73715632,0.73715632 0 0 1 0.018087,0.160714 0.73715632,0.73715632 0 0 1 -0.7369059,0.737423 0.73715632,0.73715632 0 0 1 -0.7374227,-0.737423 0.73715632,0.73715632 0 0 1 0.020154,-0.160714 H 5.59139 c 0,0 -0.2254974,-0.07696 -0.7854818,-0.07906 z" />
    <path
       style="display:inline;fill:#000000;fill-opacity:0;stroke:#f0f0f0;stroke-width:1.19062;stroke-linecap:round;stroke-dasharray:none;stroke-opacity:1"
       d="m 17.875911,26.42526 c 0.286632,-0.132292 0.573264,-0.264583 1.394588,-0.915029 0.821325,-0.650446 2.177287,-1.818999 3.3128,-3.210833 1.135512,-1.391835 2.050511,-3.006863 2.965529,-4.621924"
       id="path15"
       transform="matrix(0.30126874,0,0,0.30126874,-1.0847461,-0.87837429)" />
    <path
       style="display:inline;fill:#000000;fill-opacity:0;stroke:#f0f0f0;stroke-width:1.19062;stroke-linecap:round;stroke-dasharray:none;stroke-opacity:1"
       d="m 21.365104,13.708724 c -0.694531,-0.01102 -1.389063,-0.02205 -1.703255,0.476814 -0.314192,0.49886 -0.248047,1.507564 0.256325,2.127683 0.504371,0.62012 1.44693,0.851626 2.538349,0.61184 1.091418,-0.239786 2.331628,-0.950839 3.478166,-1.94304 1.146539,-0.9922 2.199339,-2.265482 2.844263,-3.475411 0.644924,-1.209929 0.881942,-2.3564339 0.879182,-2.9489906 -0.0028,-0.5925568 -0.245286,-0.6311406 -0.636655,-0.457504 -0.391369,0.1736366 -0.931548,0.5594791 -1.562697,1.4331688 -0.631149,0.8736898 -1.353227,2.2351648 -2.116668,3.8116578 -0.763441,1.576494 -1.5682,3.367908 -2.240688,4.704614 -0.672488,1.336706 -1.212668,2.218633 -2.113917,3.332101 -0.90125,1.113468 -2.163507,2.458407 -3.500219,3.238379 -1.336711,0.779971 -2.747794,0.994941 -3.847476,0.71657 -1.099682,-0.278372 -1.887904,-1.050058 -2.229657,-1.909964 -0.341752,-0.859905 -0.237024,-1.807976 0.118516,-2.295801 0.35554,-0.487826 0.961865,-0.515385 1.568208,-0.264576 0.606343,0.250809 1.212667,0.779964 2.235186,1.493797 1.022519,0.713833 2.461162,1.612296 4.136876,2.320613 1.675713,0.708317 3.588392,1.226449 5.523177,1.474495 1.934785,0.248046 3.891561,0.225996 5.647197,-0.281133 1.755636,-0.507128 3.310032,-1.499296 4.114807,-2.348174 0.804774,-0.848879 0.859895,-1.55442 0.700038,-2.166275 -0.159856,-0.611854 -0.534675,-1.129986 -1.058336,-1.355983 -0.523662,-0.225998 -1.196129,-0.159853 -1.656397,0.146077 -0.460268,0.30593 -0.708309,0.851622 -0.653185,1.309134 0.05512,0.457512 0.413407,0.826819 0.760677,0.95911 0.34727,0.132291 0.683505,0.02756 0.887455,-0.117877 0.203949,-0.145439 0.275606,-0.331579 0.347264,-0.517723"
       id="path14"
       transform="matrix(0.30126874,0,0,0.30126874,-1.0847461,-0.87837429)" />
  </g>
</svg>
