<?xml version="1.0" encoding="UTF-8" standalone="no"?>
<!-- Created with Inkscape (http://www.inkscape.org/) -->

<svg
   width="95.358353"
   height="96"
   viewBox="0 0 25.230231 25.4"
   version="1.1"
   id="svg1"
   xmlns="http://www.w3.org/2000/svg"
   xmlns:svg="http://www.w3.org/2000/svg">
  <defs
     id="defs1" />
  <g
     id="layer1"
     transform="translate(-0.00316153)">
    <path
       id="circle21"
       style="display:inline;vector-effect:none;fill:#383c49;fill-opacity:1;stroke-width:0.153772;stop-color:#000000"
       d="m 12.52774,1.594214 a 9.7736872,9.7736872 0 0 0 -9.7738999,9.773588 9.7736872,9.7736872 0 0 0 1.3525904,4.919643 c 0.020854,-0.02023 0.031126,-0.03229 0.05605,-0.05575 0.3170504,-0.299433 0.9744964,-0.879658 1.3015254,-1.162653 0.163514,-0.141506 0.2443942,-0.208739 0.3534056,-0.210486 0.109012,-0.0017 0.2461178,0.06196 0.5221674,0.18246 0.5520954,0.241033 1.6597732,0.708963 2.7908078,1.404588 1.1310343,0.695625 2.2855583,1.619129 2.8627343,2.082444 0.577176,0.463316 0.576968,0.466643 0.576968,0.47328 h 0.04795 c 0,-0.0066 1.04e-4,-0.01012 0.57728,-0.47328 0.577176,-0.463315 1.731388,-1.386818 2.862423,-2.082443 1.131035,-0.695626 2.238712,-1.163575 2.790808,-1.404589 0.276049,-0.120496 0.413157,-0.184208 0.522167,-0.18246 0.109012,0.0017 0.189892,0.06899 0.353406,0.210487 0.319151,0.276166 0.945647,0.829218 1.270699,1.13432 A 9.7736872,9.7736872 0 0 0 22.301328,11.367802 9.7736872,9.7736872 0 0 0 12.52774,1.594214 Z" />
    <path
       id="circle27"
       style="font-variation-settings:normal;display:inline;vector-effect:none;fill:#f0f0f0;fill-opacity:1;stroke-width:0.178854;stroke-linecap:butt;stroke-linejoin:miter;stroke-miterlimit:4;stroke-dasharray:none;stroke-dashoffset:0;stroke-opacity:1;-inkscape-stroke:none;stop-color:#000000"
       d="M 12.52774,0 A 11.367901,11.367901 0 0 0 1.1596266,11.367802 11.367901,11.367901 0 0 0 3.2903303,17.949539 C 3.4549171,17.666331 3.6425141,17.427142 3.7866539,17.252692 A 10.550867,10.550867 0 0 1 1.9766607,11.367802 10.550867,10.550867 0 0 1 12.52774,0.8170349 10.550867,10.550867 0 0 1 23.078506,11.367802 a 10.550867,10.550867 0 0 1 -1.74367,5.803935 c 0.13386,0.159754 0.335734,0.404974 0.515006,0.696532 A 11.367901,11.367901 0 0 0 23.895544,11.367802 11.367901,11.367901 0 0 0 12.52774,0 Z" />
    <path
       id="circle2"
       style="display:inline;fill:#f0f0f0;fill-opacity:1;stroke:none;stroke-width:0.0096903"
       d="m 5.8497113,15.236279 c -0.114584,0.02491 -1.5399578,1.339453 -1.5399578,1.339453 5.2211772,0.99271 7.6982635,3.61177 8.1762455,4.170288 l 0.115756,0.16744 0.08268,-0.12712 c 0.328137,-0.398992 2.776632,-3.177475 8.210351,-4.210596 0,0 -1.426407,-1.314544 -1.540991,-1.339453 -0.114582,-0.0249 -5.226608,2.246835 -6.735506,4.518588 v 0.0072 l -0.01654,-0.01034 h -0.01756 C 11.072753,17.481024 5.9642443,15.21139 5.8497113,15.236279 Z m -1.335319,2.002979 c -0.1594212,0.03487 -1.3094808,1.539957 -1.3094808,1.539957 4.3243048,-0.109599 6.3468994,0.956014 6.3468994,0.956014 C 6.9213585,19.03776 3.3409745,19.50361 3.1542685,19.531624 c -0.1867018,0.02817 -0.211362,0.09132 -0.250114,0.130225 -0.03875,0.03875 -0.778247,1.310515 -0.778247,1.310515 6.3701122,-2.14517 9.9218365,0.28027 10.3993655,0.639754 l 0.07648,0.08062 0.07751,-0.08062 c 0.47959,-0.360854 4.031566,-2.784146 10.399365,-0.639754 0,0 -0.739498,-1.271767 -0.778248,-1.310515 -0.03876,-0.03891 -0.0634,-0.102056 -0.250114,-0.130224 -0.1867,-0.02801 -3.767089,-0.493865 -6.397541,0.203605 0,0 2.022594,-1.065613 6.346899,-0.956014 0,0 -1.151094,-1.505085 -1.310514,-1.539958 -0.15942,-0.03502 -4.017314,0.505573 -8.070826,4.014226 v 0.0144 l -0.01654,-0.0217 -0.01654,0.0062 C 8.5321131,17.744662 4.6737975,17.204245 4.5143923,17.239258 Z m 2.6282632,3.552238 c -2.787577,-0.0034 -4.8521636,0.932222 -4.9847086,1.056266 -0.201974,0.189 -0.5157308,1.604036 -0.5157308,1.604036 5.0616286,-2.172118 9.6986329,-1.055232 9.6986329,-1.055232 0,0 0.163574,-0.338044 0.603581,-0.574642 -1.683098,-0.76874 -3.3416151,-1.028598 -4.8017745,-1.030428 z m 10.9512695,0 c -1.460159,0.0018 -3.118677,0.261688 -4.801774,1.030428 0.440006,0.236598 0.603581,0.574642 0.603581,0.574642 0,0 4.63597,-1.116886 9.697598,1.055232 0,0 -0.312722,-1.415034 -0.514696,-1.604036 -0.13254,-0.12404 -2.197132,-1.05976 -4.984709,-1.056266 z m -5.475635,1.481046 a 0.86001564,0.86001564 0 0 0 -0.859896,0.859896 0.86001564,0.86001564 0 0 0 0.859896,0.86093 0.86001564,0.86001564 0 0 0 0.859896,-0.86093 0.86001564,0.86001564 0 0 0 -0.859896,-0.859896 z M 9.6086549,22.65288 c -0.8710868,-0.0032 -2.146813,0.08354 -3.9284424,0.40411 -4.072296,0.732732 -5.50250651,1.42317 -5.50250651,1.42317 0,0 -0.20935564,0.14726 -0.1694987,0.417546 0.03985696,0.270252 0.32228516,0.344892 0.56017252,0.273884 0.237885,-0.071 3.42542669,-1.032058 5.70714529,-1.380794 2.068373,-0.316124 3.4077792,-0.474502 4.0876059,-0.479558 A 2.2669538,2.2669538 0 0 0 12.61829,25.4 2.2669538,2.2669538 0 0 0 14.877584,23.310206 c 0.681597,0.0058 2.020718,0.16532 4.083472,0.48059 2.281718,0.348736 5.468228,1.309794 5.70611,1.380794 0.237884,0.071 0.521366,-0.0036 0.561206,-0.273884 0.03984,-0.270282 -0.17054,-0.417546 -0.17054,-0.417546 0,0 -1.430212,-0.690438 -5.502506,-1.42317 -4.072295,-0.73272 -5.499405,-0.24598 -5.499405,-0.24598 a 1.4743126,1.4743126 0 0 1 0.03617,0.321428 1.4743126,1.4743126 0 0 1 -1.473812,1.474846 1.4743126,1.4743126 0 0 1 -1.474846,-1.474846 1.4743126,1.4743126 0 0 1 0.04031,-0.321428 h -0.0041 c 0,0 -0.450994,-0.15392 -1.5709631,-0.15812 z" />
    <path
       style="display:inline;fill:#000000;fill-opacity:0;stroke:#f0f0f0;stroke-width:1.19062;stroke-linecap:round;stroke-dasharray:none;stroke-opacity:1"
       d="m 17.875911,26.42526 c 0.286632,-0.132292 0.573264,-0.264583 1.394588,-0.915029 0.821325,-0.650446 2.177287,-1.818999 3.3128,-3.210833 1.135512,-1.391835 2.050511,-3.006863 2.965529,-4.621924"
       id="path15"
       transform="matrix(0.60253748,0,0,0.60253748,-2.1726537,-1.7567486)" />
    <path
       style="display:inline;fill:#000000;fill-opacity:0;stroke:#f0f0f0;stroke-width:1.19062;stroke-linecap:round;stroke-dasharray:none;stroke-opacity:1"
       d="m 21.365104,13.708724 c -0.694531,-0.01102 -1.389063,-0.02205 -1.703255,0.476814 -0.314192,0.49886 -0.248047,1.507564 0.256325,2.127683 0.504371,0.62012 1.44693,0.851626 2.538349,0.61184 1.091418,-0.239786 2.331628,-0.950839 3.478166,-1.94304 1.146539,-0.9922 2.199339,-2.265482 2.844263,-3.475411 0.644924,-1.209929 0.881942,-2.3564339 0.879182,-2.9489906 -0.0028,-0.5925568 -0.245286,-0.6311406 -0.636655,-0.457504 -0.391369,0.1736366 -0.931548,0.5594791 -1.562697,1.4331688 -0.631149,0.8736898 -1.353227,2.2351648 -2.116668,3.8116578 -0.763441,1.576494 -1.5682,3.367908 -2.240688,4.704614 -0.672488,1.336706 -1.212668,2.218633 -2.113917,3.332101 -0.90125,1.113468 -2.163507,2.458407 -3.500219,3.238379 -1.336711,0.779971 -2.747794,0.994941 -3.847476,0.71657 -1.099682,-0.278372 -1.887904,-1.050058 -2.229657,-1.909964 -0.341752,-0.859905 -0.237024,-1.807976 0.118516,-2.295801 0.35554,-0.487826 0.961865,-0.515385 1.568208,-0.264576 0.606343,0.250809 1.212667,0.779964 2.235186,1.493797 1.022519,0.713833 2.461162,1.612296 4.136876,2.320613 1.675713,0.708317 3.588392,1.226449 5.523177,1.474495 1.934785,0.248046 3.891561,0.225996 5.647197,-0.281133 1.755636,-0.507128 3.310032,-1.499296 4.114807,-2.348174 0.804774,-0.848879 0.859895,-1.55442 0.700038,-2.166275 -0.159856,-0.611854 -0.534675,-1.129986 -1.058336,-1.355983 -0.523662,-0.225998 -1.196129,-0.159853 -1.656397,0.146077 -0.460268,0.30593 -0.708309,0.851622 -0.653185,1.309134 0.05512,0.457512 0.413407,0.826819 0.760677,0.95911 0.34727,0.132291 0.683505,0.02756 0.887455,-0.117877 0.203949,-0.145439 0.275606,-0.331579 0.347264,-0.517723"
       id="path14"
       transform="matrix(0.60253748,0,0,0.60253748,-2.1726537,-1.7567486)" />
  </g>
</svg>
