<?xml version="1.0" encoding="UTF-8" standalone="no"?>
<!-- Created with Inkscape (http://www.inkscape.org/) -->

<svg
   width="143.03752"
   height="144"
   viewBox="0 0 37.845344 38.1"
   version="1.1"
   id="svg1"
   xmlns="http://www.w3.org/2000/svg"
   xmlns:svg="http://www.w3.org/2000/svg">
  <defs
     id="defs1" />
  <g
     id="layer1"
     transform="translate(-0.00316152)">
    <path
       id="circle21"
       style="display:inline;vector-effect:none;fill:#383c49;fill-opacity:1;stroke-width:0.230658;stop-color:#000000"
       d="M 18.790029,2.391321 A 14.660531,14.660531 0 0 0 4.1291794,17.051703 14.660531,14.660531 0 0 0 6.158065,24.431168 c 0.031281,-0.03035 0.046689,-0.04843 0.084075,-0.08362 0.4755756,-0.44915 1.4617446,-1.319487 1.9522881,-1.74398 0.245271,-0.212259 0.3665913,-0.313108 0.5301084,-0.315729 0.163518,-0.0025 0.3691767,0.09294 0.7832511,0.27369 0.8281434,0.36155 2.4896594,1.063445 4.1862114,2.106882 1.696552,1.043438 3.428338,2.428694 4.294102,3.123666 0.865764,0.694974 0.865452,0.699965 0.865452,0.70992 h 0.07192 c 0,-0.0099 1.56e-4,-0.01518 0.86592,-0.70992 0.865764,-0.694972 2.597082,-2.080227 4.293634,-3.123664 1.696553,-1.043439 3.358068,-1.745363 4.186212,-2.106884 0.414074,-0.180744 0.619736,-0.276312 0.783251,-0.27369 0.163518,0.0025 0.284838,0.103485 0.530109,0.315731 0.478726,0.414249 1.41847,1.243827 1.906048,1.70148 A 14.660531,14.660531 0 0 0 33.450411,17.051703 14.660531,14.660531 0 0 0 18.790029,2.391321 Z" />
    <path
       id="circle27"
       style="font-variation-settings:normal;display:inline;vector-effect:none;fill:#f0f0f0;fill-opacity:1;stroke-width:0.268281;stroke-linecap:butt;stroke-linejoin:miter;stroke-miterlimit:4;stroke-dasharray:none;stroke-dashoffset:0;stroke-opacity:1;-inkscape-stroke:none;stop-color:#000000"
       d="M 18.790029,0 A 17.051851,17.051851 0 0 0 1.7378591,17.051703 17.051851,17.051851 0 0 0 4.9339147,26.924309 C 5.1807949,26.499497 5.4621904,26.140713 5.6784001,25.879038 A 15.8263,15.8263 0 0 1 2.9634103,17.051703 15.8263,15.8263 0 0 1 18.790029,1.2255524 15.8263,15.8263 0 0 1 34.616178,17.051703 15.8263,15.8263 0 0 1 32.000673,25.757606 c 0.20079,0.239631 0.503601,0.607461 0.772509,1.044798 A 17.051851,17.051851 0 0 0 35.841735,17.051703 17.051851,17.051851 0 0 0 18.790029,0 Z" />
    <path
       id="circle2"
       style="display:inline;fill:#f0f0f0;fill-opacity:1;stroke:none;stroke-width:0.0145354"
       d="m 8.7729862,22.854419 c -0.171876,0.03737 -2.3099367,2.009179 -2.3099367,2.009179 7.8317655,1.489065 11.5473955,5.417655 12.2643685,6.255432 l 0.173634,0.25116 0.12402,-0.19068 c 0.492205,-0.598488 4.164948,-4.766212 12.315526,-6.315894 0,0 -2.13961,-1.971816 -2.311486,-2.009179 -0.171873,-0.03735 -7.839912,3.370252 -10.103259,6.777882 v 0.0108 l -0.02481,-0.01551 h -0.02634 C 16.607549,26.221536 8.9447857,22.817085 8.7729862,22.854419 Z m -2.0029785,3.004468 c -0.2391318,0.05231 -1.9642212,2.309936 -1.9642212,2.309936 6.4864575,-0.164399 9.5203495,1.434021 9.5203495,1.434021 -3.945679,-1.046204 -9.316255,-0.347429 -9.596314,-0.305408 -0.2800527,0.04225 -0.317043,0.13698 -0.375171,0.195338 -0.058125,0.05813 -1.1673705,1.965772 -1.1673705,1.965772 9.5551685,-3.217755 14.8827545,0.420405 15.5990485,0.959631 l 0.11472,0.12093 0.116265,-0.12093 c 0.719385,-0.541281 6.047349,-4.176219 15.599047,-0.959631 0,0 -1.109247,-1.90765 -1.167372,-1.965772 -0.05814,-0.05837 -0.0951,-0.153084 -0.375171,-0.195336 -0.28005,-0.04201 -5.650633,-0.740798 -9.596311,0.305407 0,0 3.033891,-1.598419 9.520348,-1.434021 0,0 -1.726641,-2.257627 -1.965771,-2.309937 -0.23913,-0.05253 -6.025971,0.75836 -12.106239,6.021339 v 0.0216 l -0.02481,-0.03255 -0.02481,0.0093 C 12.796589,26.616993 7.0091155,25.806368 6.7700077,25.858887 Z m 3.9423943,5.328357 c -4.181365,-0.0051 -7.2782449,1.398333 -7.4770624,1.584399 -0.302961,0.2835 -0.7735962,2.406054 -0.7735962,2.406054 7.5924426,-3.258177 14.5479496,-1.582848 14.5479496,-1.582848 0,0 0.245361,-0.507066 0.905371,-0.861963 -2.524647,-1.15311 -5.012422,-1.542897 -7.202662,-1.545642 z m 16.426905,0 c -2.190239,0.0027 -4.678016,0.392532 -7.202661,1.545642 0.660009,0.354897 0.905371,0.861963 0.905371,0.861963 0,0 6.953955,-1.675329 14.546397,1.582848 0,0 -0.469083,-2.122551 -0.772044,-2.406054 -0.19881,-0.18606 -3.295698,-1.58964 -7.477063,-1.584399 z m -8.213453,2.221569 a 1.2900235,1.2900235 0 0 0 -1.289844,1.289844 1.2900235,1.2900235 0 0 0 1.289844,1.291395 1.2900235,1.2900235 0 0 0 1.289844,-1.291395 1.2900235,1.2900235 0 0 0 -1.289844,-1.289844 z m -4.514452,0.570507 c -1.306631,-0.0048 -3.22022,0.12531 -5.892664,0.606165 -6.108444,1.099098 -8.25375978,2.134755 -8.25375978,2.134755 0,0 -0.31403346,0.22089 -0.25424805,0.626319 0.05978544,0.405378 0.48342774,0.517338 0.84025878,0.410826 C 1.2078165,37.650885 5.989129,36.209298 9.4117069,35.686194 12.514266,35.212008 14.523376,34.974441 15.543116,34.966857 A 3.4004307,3.4004307 0 0 0 18.925854,38.1 3.4004307,3.4004307 0 0 0 22.314795,34.965309 c 1.022396,0.0087 3.031077,0.24798 6.125208,0.720885 3.422577,0.523104 8.202342,1.964691 8.559165,2.071191 0.356826,0.1065 0.782049,-0.0054 0.841809,-0.410826 0.05976,-0.405423 -0.25581,-0.626319 -0.25581,-0.626319 0,0 -2.145318,-1.035657 -8.253759,-2.134755 -6.108442,-1.09908 -8.249107,-0.36897 -8.249107,-0.36897 a 2.2114689,2.2114689 0 0 1 0.05425,0.482142 2.2114689,2.2114689 0 0 1 -2.210718,2.212269 2.2114689,2.2114689 0 0 1 -2.212269,-2.212269 2.2114689,2.2114689 0 0 1 0.06047,-0.482142 h -0.0062 c 0,0 -0.676491,-0.23088 -2.356445,-0.23718 z" />
    <path
       style="display:inline;fill:#000000;fill-opacity:0;stroke:#f0f0f0;stroke-width:1.19062;stroke-linecap:round;stroke-dasharray:none;stroke-opacity:1"
       d="m 17.875911,26.42526 c 0.286632,-0.132292 0.573264,-0.264583 1.394588,-0.915029 0.821325,-0.650446 2.177287,-1.818999 3.3128,-3.210833 1.135512,-1.391835 2.050511,-3.006863 2.965529,-4.621924"
       id="path15"
       transform="matrix(0.90380622,0,0,0.90380622,-3.2605613,-2.6351229)" />
    <path
       style="display:inline;fill:#000000;fill-opacity:0;stroke:#f0f0f0;stroke-width:1.19062;stroke-linecap:round;stroke-dasharray:none;stroke-opacity:1"
       d="m 21.365104,13.708724 c -0.694531,-0.01102 -1.389063,-0.02205 -1.703255,0.476814 -0.314192,0.49886 -0.248047,1.507564 0.256325,2.127683 0.504371,0.62012 1.44693,0.851626 2.538349,0.61184 1.091418,-0.239786 2.331628,-0.950839 3.478166,-1.94304 1.146539,-0.9922 2.199339,-2.265482 2.844263,-3.475411 0.644924,-1.209929 0.881942,-2.3564339 0.879182,-2.9489906 -0.0028,-0.5925568 -0.245286,-0.6311406 -0.636655,-0.457504 -0.391369,0.1736366 -0.931548,0.5594791 -1.562697,1.4331688 -0.631149,0.8736898 -1.353227,2.2351648 -2.116668,3.8116578 -0.763441,1.576494 -1.5682,3.367908 -2.240688,4.704614 -0.672488,1.336706 -1.212668,2.218633 -2.113917,3.332101 -0.90125,1.113468 -2.163507,2.458407 -3.500219,3.238379 -1.336711,0.779971 -2.747794,0.994941 -3.847476,0.71657 -1.099682,-0.278372 -1.887904,-1.050058 -2.229657,-1.909964 -0.341752,-0.859905 -0.237024,-1.807976 0.118516,-2.295801 0.35554,-0.487826 0.961865,-0.515385 1.568208,-0.264576 0.606343,0.250809 1.212667,0.779964 2.235186,1.493797 1.022519,0.713833 2.461162,1.612296 4.136876,2.320613 1.675713,0.708317 3.588392,1.226449 5.523177,1.474495 1.934785,0.248046 3.891561,0.225996 5.647197,-0.281133 1.755636,-0.507128 3.310032,-1.499296 4.114807,-2.348174 0.804774,-0.848879 0.859895,-1.55442 0.700038,-2.166275 -0.159856,-0.611854 -0.534675,-1.129986 -1.058336,-1.355983 -0.523662,-0.225998 -1.196129,-0.159853 -1.656397,0.146077 -0.460268,0.30593 -0.708309,0.851622 -0.653185,1.309134 0.05512,0.457512 0.413407,0.826819 0.760677,0.95911 0.34727,0.132291 0.683505,0.02756 0.887455,-0.117877 0.203949,-0.145439 0.275606,-0.331579 0.347264,-0.517723"
       id="path14"
       transform="matrix(0.90380622,0,0,0.90380622,-3.2605613,-2.6351229)" />
  </g>
</svg>
