<?xml version="1.0" encoding="UTF-8" standalone="no"?>
<!-- Created with Inkscape (http://www.inkscape.org/) -->

<svg
   width="508.57788"
   height="512"
   viewBox="0 0 134.56123 135.46667"
   version="1.1"
   id="svg1"
   xmlns="http://www.w3.org/2000/svg"
   xmlns:svg="http://www.w3.org/2000/svg">
  <defs
     id="defs1" />
  <g
     id="layer1"
     transform="translate(-0.00316153)">
    <path
       id="circle21"
       style="display:inline;vector-effect:none;fill:#383c49;fill-opacity:1;stroke-width:0.820117;stop-color:#000000"
       d="M 66.800913,8.5024747 A 52.126332,52.126332 0 0 0 14.673447,60.628277 52.126332,52.126332 0 0 0 21.887263,86.866375 c 0.111221,-0.107911 0.166005,-0.172195 0.298933,-0.297315 1.690936,-1.596978 5.197314,-4.69151 6.941469,-6.200818 0.872075,-0.754699 1.303436,-1.113273 1.88483,-1.122592 0.581397,-0.0089 1.312628,0.330453 2.784893,0.97312 2.944509,1.285511 8.852122,3.781138 14.884307,7.491136 6.032185,3.710002 12.189646,8.635356 15.267918,11.106368 3.078272,2.471016 3.077163,2.488766 3.077163,2.524156 h 0.255715 c 0,-0.0352 5.55e-4,-0.054 3.078827,-2.524156 3.078272,-2.471012 9.234069,-7.396363 15.266254,-11.106361 6.032189,-3.710005 11.939797,-6.205735 14.884308,-7.491143 1.47226,-0.642646 2.20351,-0.982443 2.78489,-0.97312 0.5814,0.0089 1.01276,0.367946 1.88484,1.122599 1.70213,1.472885 5.04344,4.422496 6.77706,6.049707 A 52.126332,52.126332 0 0 0 118.92672,60.628277 52.126332,52.126332 0 0 0 66.800913,8.5024747 Z" />
    <path
       id="circle27"
       style="font-variation-settings:normal;display:inline;vector-effect:none;fill:#f0f0f0;fill-opacity:1;stroke-width:0.953888;stroke-linecap:butt;stroke-linejoin:miter;stroke-miterlimit:4;stroke-dasharray:none;stroke-dashoffset:0;stroke-opacity:1;-inkscape-stroke:none;stop-color:#000000"
       d="M 66.800913,0 A 60.628804,60.628804 0 0 0 6.1709751,60.628277 60.628804,60.628804 0 0 0 17.534728,95.730876 c 0.877797,-1.510442 1.878314,-2.786119 2.64706,-3.716519 A 56.271289,56.271289 0 0 1 10.528491,60.628277 56.271289,56.271289 0 0 1 66.800913,4.3575197 56.271289,56.271289 0 0 1 123.07166,60.628277 56.271289,56.271289 0 0 1 113.77209,91.582599 c 0.71392,0.852021 1.79058,2.159861 2.7467,3.714837 A 60.628804,60.628804 0 0 0 127.4292,60.628277 60.628804,60.628804 0 0 0 66.800913,0 Z" />
    <path
       id="circle2"
       style="display:inline;fill:#f0f0f0;fill-opacity:1;stroke:none;stroke-width:0.0516814"
       d="m 31.18476,81.260156 c -0.611114,0.132872 -8.213108,7.143748 -8.213108,7.143748 27.846277,5.294453 41.057406,19.262776 43.606644,22.241536 l 0.617365,0.89301 0.44096,-0.67797 c 1.750062,-2.12796 14.808704,-16.946532 43.788539,-22.456512 0,0 -7.6075,-7.010901 -8.21862,-7.143748 -0.6111,-0.1328 -27.875242,11.983119 -35.922698,24.09914 v 0.0384 l -0.08821,-0.0552 h -0.09365 C 59.040984,93.232128 31.795603,81.127413 31.18476,81.260156 Z m -7.121701,10.682553 c -0.850246,0.185991 -6.983898,8.213111 -6.983898,8.213111 23.06296,-0.584535 33.850132,5.09874 33.850132,5.09874 -14.029081,-3.71984 -33.124462,-1.23531 -34.120228,-1.0859 -0.995742,0.15022 -1.127264,0.48704 -1.333941,0.69454 -0.206667,0.20668 -4.150651,6.98941 -4.150651,6.98941 33.973933,-11.44091 52.916461,1.49477 55.463284,3.41202 l 0.407893,0.42997 0.413387,-0.42997 c 2.557813,-1.92456 21.501685,-14.84878 55.463283,-3.41202 0,0 -3.94399,-6.78276 -4.15066,-6.98941 -0.20672,-0.20754 -0.33813,-0.5443 -1.33394,-0.69453 -0.99574,-0.14937 -20.091142,-2.63395 -34.120219,1.08589 0,0 10.787168,-5.683268 33.850129,-5.09874 0,0 -6.13917,-8.02712 -6.98941,-8.213111 -0.85024,-0.186773 -21.425675,2.696391 -43.044406,21.409201 v 0.0768 l -0.08821,-0.11573 -0.08821,0.0331 C 45.490904,94.638197 24.91322,91.755975 24.063059,91.942709 Z m 14.017402,18.945271 c -14.867076,-0.0181 -25.878204,4.97185 -26.585111,5.63342 -1.077194,1.008 -2.750564,8.55486 -2.750564,8.55486 26.995351,-11.58463 51.726043,-5.62791 51.726043,-5.62791 0,0 0.872395,-1.8029 3.219097,-3.06476 -8.976523,-4.09994 -17.821945,-5.48585 -25.609465,-5.49561 z m 58.406773,0 c -7.787516,0.01 -16.632945,1.39567 -25.609461,5.49561 2.346699,1.26186 3.219097,3.06476 3.219097,3.06476 0,0 24.725173,-5.95672 51.72052,5.62791 0,0 -1.66785,-7.54685 -2.74504,-8.55486 -0.70688,-0.66155 -11.71804,-5.65206 -26.585116,-5.63342 z m -29.203388,7.89891 a 4.5867502,4.5867502 0 0 0 -4.586112,4.58611 4.5867502,4.5867502 0 0 0 4.586112,4.59163 4.5867502,4.5867502 0 0 0 4.586112,-4.59163 4.5867502,4.5867502 0 0 0 -4.586112,-4.58611 z m -16.051385,2.02847 c -4.645799,-0.0171 -11.449671,0.44555 -20.951694,2.15525 -21.7189122,3.90791 -29.34670167,7.59024 -29.34670167,7.59024 0,0 -1.11656341,0.78539 -0.90399306,2.22692 0.21257045,1.44134 1.71885423,1.83942 2.98758673,1.46071 1.2687202,-0.37867 18.268942,-5.50431 30.438108,-7.36423 11.031322,-1.686 18.174824,-2.53068 21.800566,-2.55765 a 12.09042,12.09042 0 0 0 12.027513,11.14007 12.09042,12.09042 0 0 0 12.049568,-11.14557 c 3.635186,0.0309 10.777163,0.88171 21.778516,2.56315 12.16916,1.85992 29.16388,6.98556 30.43259,7.36423 1.26871,0.37867 2.78062,-0.0192 2.9931,-1.46071 0.21248,-1.44151 -0.90955,-2.22692 -0.90955,-2.22692 0,0 -7.6278,-3.68233 -29.3467,-7.59024 -21.718904,-3.90784 -29.330157,-1.31189 -29.330157,-1.31189 a 7.8630005,7.8630005 0 0 1 0.192889,1.71428 7.8630005,7.8630005 0 0 1 -7.860331,7.86585 7.8630005,7.8630005 0 0 1 -7.865845,-7.86585 7.8630005,7.8630005 0 0 1 0.215004,-1.71428 h -0.02204 c 0,0 -2.405301,-0.82091 -8.378471,-0.84331 z" />
    <path
       style="display:inline;fill:#000000;fill-opacity:0;stroke:#f0f0f0;stroke-width:1.19062;stroke-linecap:round;stroke-dasharray:none;stroke-opacity:1"
       d="m 17.875911,26.42526 c 0.286632,-0.132292 0.573264,-0.264583 1.394588,-0.915029 0.821325,-0.650446 2.177287,-1.818999 3.3128,-3.210833 1.135512,-1.391835 2.050511,-3.006863 2.965529,-4.621924"
       id="path15"
       transform="matrix(3.2135332,0,0,3.2135332,-11.601186,-9.3693259)" />
    <path
       style="display:inline;fill:#000000;fill-opacity:0;stroke:#f0f0f0;stroke-width:1.19062;stroke-linecap:round;stroke-dasharray:none;stroke-opacity:1"
       d="m 21.365104,13.708724 c -0.694531,-0.01102 -1.389063,-0.02205 -1.703255,0.476814 -0.314192,0.49886 -0.248047,1.507564 0.256325,2.127683 0.504371,0.62012 1.44693,0.851626 2.538349,0.61184 1.091418,-0.239786 2.331628,-0.950839 3.478166,-1.94304 1.146539,-0.9922 2.199339,-2.265482 2.844263,-3.475411 0.644924,-1.209929 0.881942,-2.3564339 0.879182,-2.9489906 -0.0028,-0.5925568 -0.245286,-0.6311406 -0.636655,-0.457504 -0.391369,0.1736366 -0.931548,0.5594791 -1.562697,1.4331688 -0.631149,0.8736898 -1.353227,2.2351648 -2.116668,3.8116578 -0.763441,1.576494 -1.5682,3.367908 -2.240688,4.704614 -0.672488,1.336706 -1.212668,2.218633 -2.113917,3.332101 -0.90125,1.113468 -2.163507,2.458407 -3.500219,3.238379 -1.336711,0.779971 -2.747794,0.994941 -3.847476,0.71657 -1.099682,-0.278372 -1.887904,-1.050058 -2.229657,-1.909964 -0.341752,-0.859905 -0.237024,-1.807976 0.118516,-2.295801 0.35554,-0.487826 0.961865,-0.515385 1.568208,-0.264576 0.606343,0.250809 1.212667,0.779964 2.235186,1.493797 1.022519,0.713833 2.461162,1.612296 4.136876,2.320613 1.675713,0.708317 3.588392,1.226449 5.523177,1.474495 1.934785,0.248046 3.891561,0.225996 5.647197,-0.281133 1.755636,-0.507128 3.310032,-1.499296 4.114807,-2.348174 0.804774,-0.848879 0.859895,-1.55442 0.700038,-2.166275 -0.159856,-0.611854 -0.534675,-1.129986 -1.058336,-1.355983 -0.523662,-0.225998 -1.196129,-0.159853 -1.656397,0.146077 -0.460268,0.30593 -0.708309,0.851622 -0.653185,1.309134 0.05512,0.457512 0.413407,0.826819 0.760677,0.95911 0.34727,0.132291 0.683505,0.02756 0.887455,-0.117877 0.203949,-0.145439 0.275606,-0.331579 0.347264,-0.517723"
       id="path14"
       transform="matrix(3.2135332,0,0,3.2135332,-11.601186,-9.3693259)" />
  </g>
</svg>
